<svg xmlns="http://www.w3.org/2000/svg" width="27" height="27" viewBox="0 0 27 27"><g><g><g><path fill="#feffff" d="M14.736 5.5H5.263C4.566 5.5 4 5.948 4 6.5s.566 1 1.263 1h9.473c.7 0 1.264-.448 1.264-1s-.565-1-1.264-1z"/></g><g><path fill="#feffff" d="M16 11.5c0-.553-.565-1-1.264-1H5.264c-.698 0-1.264.448-1.264 1s.566 1 1.264 1h9.473c.698 0 1.263-.448 1.263-1z"/></g><g><path fill="#feffff" d="M10.783 16.5c.672 0 1.217-.448 1.217-1s-.545-1-1.217-1H6.218c-.673 0-1.218.448-1.218 1 0 .553.545 1 1.218 1z"/></g><g><path fill="#feffff" d="M19.825 20.376l-1.296.818v2.942H2.47V2.864h16.058v4.67l2.47-4.094V1.682C21 1.029 20.446.5 19.764.5H1.235C.553.5 0 1.03 0 1.682v23.636c0 .653.553 1.182 1.235 1.182h18.529c.683 0 1.236-.53 1.236-1.182v-6.513l-.59.977a1.817 1.817 0 0 1-.586.594z"/></g><g><path fill="#feffff" d="M16.516 21.315a5.447 5.447 0 0 0-.69-.457 5.584 5.584 0 0 0-.75-.354l.086-1.412c.323.041.8.169 1.408.51.606.341.957.682 1.156.933zm10.47-14.198c-.026-.108-.287-1.082-1.86-1.968-1.572-.885-2.568-.62-2.678-.586a.616.616 0 0 0-.35.274l-7.725 13.05a.599.599 0 0 0-.083.266l-.289 4.708a.6.6 0 0 0 .307.559.635.635 0 0 0 .65-.02l4.037-2.598a.6.6 0 0 0 .195-.201l7.727-13.052a.592.592 0 0 0 .069-.432z"/></g><g><path fill="#feffff" d="M8.463 23.234c.039.255.312.334.495.416.176.08.387-.072.534-.149.9-.471 2.117.083 3.08.083.57 0 .57-.952 0-.952-1.123 0-2.057-.307-3.17-.109a.63.63 0 0 0-.094-.29c-.208-.384-.473-.493-.738-.447-.018-.045-.035-.09-.06-.136a.413.413 0 0 0-.276-.21c.311-.584.511-1.203.308-1.703-.063-.153-.24-.23-.382-.236-.59-.024-1.097.643-1.476 1.044-.95 1.003-1.786 2.141-2.596 3.274-.347.487.421.96.763.482a33.4 33.4 0 0 1 2.295-2.89c-.197.35-.406.691-.626 1.02-.315.524.436.97.763.481.077-.128.176-.22.284-.299-.021.06-.043.117-.065.176l.003.001a2.114 2.114 0 0 0-.048.113c-.198.533.54.777.808.366.068-.104.131-.214.188-.33-.004.08-.006.187.01.295z"/></g></g></g></svg>