<svg xmlns="http://www.w3.org/2000/svg" width="41" height="42" viewBox="0 0 41 42"><g><g><g><g><g opacity=".1"><path d="M9 35.807L15.135 42S41 41.012 41 12.361C27 4.951 18.833 1 18.833 1z"/></g></g><g><g><path fill="#feffff" d="M13.788 26.604a2.848 2.848 0 0 1-.876-.134 4.942 4.942 0 0 1-2.234-1.956 5.961 5.961 0 0 0-1.103-1.226 6.086 6.086 0 0 0-1.532-.679l-.314-.109L0 32.552h5.741L8.252 36.5 14 26.586c-.07.008-.14.018-.212.018z"/></g><g><path fill="#feffff" d="M26.27 22.5l-.314.108c-.54.154-1.055.38-1.532.674A5.97 5.97 0 0 0 23.32 24.5a4.931 4.931 0 0 1-2.237 1.943c-.35.108-.717.15-1.083.124l5.798 9.933 3.175-4.018H34z"/></g><g><path fill="#feffff" d="M14.333 14.5h1.336c0 .736.598 1.333 1.336 1.333.738 0 1.336-.597 1.336-1.333s-.598-1.333-1.336-1.333a2.662 2.662 0 0 1-.668-5.239V6.5h1.336v1.428c1.176.303 2 1.36 2.004 2.572H18.34c0-.736-.598-1.333-1.336-1.333-.738 0-1.336.597-1.336 1.333s.598 1.333 1.336 1.333a2.662 2.662 0 0 1 .668 5.239V18.5h-1.336v-1.428a2.668 2.668 0 0 1-2.004-2.572zM25 12.5a8 8 0 1 0-8 8 8.009 8.009 0 0 0 8-8z"/></g><g><path fill="#feffff" d="M7.9 13.013c0-5.059 4.074-9.16 9.1-9.16s9.1 4.101 9.1 9.16c0 5.06-4.074 9.16-9.1 9.16-5.024-.005-9.095-4.103-9.1-9.16zm11.11 12.179a3.718 3.718 0 0 0 2.009.27 3.783 3.783 0 0 0 1.52-1.451 6.848 6.848 0 0 1 1.337-1.468 6.833 6.833 0 0 1 1.82-.84c.689-.154 1.32-.5 1.824-.998.311-.63.441-1.335.376-2.035-.019-.68.06-1.359.237-2.016.233-.613.556-1.19.957-1.709.48-.543.796-1.213.91-1.932a3.82 3.82 0 0 0-.91-1.932 6.698 6.698 0 0 1-.96-1.708 7.064 7.064 0 0 1-.237-2.016 3.804 3.804 0 0 0-.376-2.036 3.761 3.761 0 0 0-1.823-.997 6.83 6.83 0 0 1-1.82-.84 6.798 6.798 0 0 1-1.337-1.468 3.78 3.78 0 0 0-1.52-1.452 3.732 3.732 0 0 0-2.009.27A7.03 7.03 0 0 1 17 1.237a7.025 7.025 0 0 1-2.01-.401A5.847 5.847 0 0 0 13.424.5a1.422 1.422 0 0 0-.445.066c-.633.33-1.16.833-1.52 1.451a6.846 6.846 0 0 1-1.338 1.468 6.833 6.833 0 0 1-1.82.84c-.688.154-1.32.5-1.824.997-.31.63-.44 1.336-.375 2.036.018.68-.061 1.359-.237 2.015a6.693 6.693 0 0 1-.956 1.708A3.818 3.818 0 0 0 4 13.013c.114.719.43 1.389.91 1.932.402.52.725 1.095.96 1.709.176.657.255 1.336.236 2.015-.065.7.065 1.406.376 2.036a3.764 3.764 0 0 0 1.824.998 6.833 6.833 0 0 1 1.82.84 6.8 6.8 0 0 1 1.338 1.468c.36.618.887 1.122 1.52 1.451a3.715 3.715 0 0 0 2.008-.27A7.013 7.013 0 0 1 17 24.791c.686.035 1.363.17 2.01.401z"/></g></g></g></g></g></svg>