<svg xmlns="http://www.w3.org/2000/svg" width="64" height="62" viewBox="0 0 64 62"><g><g><g><path fill="#f1f1f1" d="M54.222 1a1.88 1.88 0 0 1-1.889 1.87A1.88 1.88 0 0 1 50.444 1h-3.777a1.88 1.88 0 0 1-1.89 1.87A1.88 1.88 0 0 1 42.89 1H39.11a1.88 1.88 0 0 1-1.889 1.87A1.88 1.88 0 0 1 35.333 1h-3.777a1.88 1.88 0 0 1-1.89 1.87A1.88 1.88 0 0 1 27.779 1H24v9.974h3.148c.752 0 1.427.327 1.889.844a2.522 2.522 0 0 1 1.889-.844h3.778c.751 0 1.426.327 1.889.844a2.522 2.522 0 0 1 1.888-.844h3.778c1.392 0 2.519 1.116 2.519 2.494v3.74h5.666c1.74 0 3.149 1.395 3.149 3.117v16.207c0 1.722-1.41 3.117-3.149 3.117h-5.666v7.48A1.88 1.88 0 0 1 46.667 49h3.777a1.88 1.88 0 0 1 1.89-1.87A1.88 1.88 0 0 1 54.221 49H58V1z"/><path fill="none" stroke="#e2e2e2" stroke-miterlimit="50" d="M54.222 1a1.88 1.88 0 0 1-1.889 1.87A1.88 1.88 0 0 1 50.444 1h-3.777a1.88 1.88 0 0 1-1.89 1.87A1.88 1.88 0 0 1 42.89 1H39.11a1.88 1.88 0 0 1-1.889 1.87A1.88 1.88 0 0 1 35.333 1h-3.777a1.88 1.88 0 0 1-1.89 1.87A1.88 1.88 0 0 1 27.779 1H24v9.974h3.148c.752 0 1.427.327 1.889.844a2.522 2.522 0 0 1 1.889-.844h3.778c.751 0 1.426.327 1.889.844a2.522 2.522 0 0 1 1.888-.844h3.778c1.392 0 2.519 1.116 2.519 2.494v3.74h5.666c1.74 0 3.149 1.395 3.149 3.117v16.207c0 1.722-1.41 3.117-3.149 3.117h-5.666v7.48A1.88 1.88 0 0 1 46.667 49h3.777a1.88 1.88 0 0 1 1.89-1.87A1.88 1.88 0 0 1 54.221 49H58v0V1v0z"/></g><g><path fill="#263238" d="M36.754 58.899a2.5 2.5 0 0 0-2.422 1.86h-2.658a2.5 2.5 0 0 0-2.422-1.86 2.5 2.5 0 0 0-2.42 1.86h-2.66a2.5 2.5 0 0 0-2.42-1.86 2.5 2.5 0 0 0-2.422 1.86h-2.659a2.5 2.5 0 0 0-2.421-1.86 2.5 2.5 0 0 0-2.421 1.86H9.25V14.241h2.575a2.5 2.5 0 0 0 2.421 1.86 2.5 2.5 0 0 0 2.421-1.86h2.66a2.5 2.5 0 0 0 2.42 1.86 2.5 2.5 0 0 0 2.422-1.86h2.658a2.5 2.5 0 0 0 2.422 1.86 2.5 2.5 0 0 0 2.421-1.86h2.659a2.5 2.5 0 0 0 2.421 1.86 2.5 2.5 0 0 0 2.421-1.86h2.579v46.518h-2.579a2.496 2.496 0 0 0-2.417-1.86zM43 61.379V13.62c0-.342-.28-.62-.625-.62h-3.75a.623.623 0 0 0-.625.62c0 .684-.561 1.24-1.25 1.24s-1.25-.556-1.25-1.24c0-.342-.28-.62-.625-.62h-3.75a.623.623 0 0 0-.625.62c0 .684-.561 1.24-1.25 1.24S28 14.305 28 13.62c0-.342-.28-.62-.625-.62h-3.75a.623.623 0 0 0-.625.62c0 .684-.561 1.24-1.25 1.24s-1.25-.556-1.25-1.24c0-.342-.28-.62-.625-.62h-3.75a.623.623 0 0 0-.625.62c0 .684-.561 1.24-1.25 1.24S13 14.305 13 13.62c0-.342-.28-.62-.625-.62h-3.75a.623.623 0 0 0-.625.62v47.76c0 .342.28.62.625.62h3.75a.623.623 0 0 0 .625-.62c0-.684.561-1.24 1.25-1.24s1.25.556 1.25 1.24c0 .342.28.62.625.62h3.75a.623.623 0 0 0 .625-.62c0-.684.561-1.24 1.25-1.24s1.25.556 1.25 1.24c0 .342.28.62.625.62h3.75a.623.623 0 0 0 .625-.62c0-.684.561-1.24 1.25-1.24s1.25.556 1.25 1.24c0 .342.28.62.625.62h3.75a.623.623 0 0 0 .625-.62c0-.684.561-1.24 1.25-1.24s1.25.556 1.25 1.24c0 .342.28.62.625.62h3.75a.623.623 0 0 0 .625-.62z"/></g><g><path fill="#263238" d="M58.375 49h-3.75a.623.623 0 0 1-.625-.62c0-.684-.561-1.24-1.25-1.24s-1.25.556-1.25 1.24c0 .342-.28.62-.625.62h-3.75a.623.623 0 0 1-.625-.62c0-.684-.561-1.24-1.25-1.24a.623.623 0 0 1-.625-.621c0-.342.28-.62.625-.62 1.163 0 2.143.791 2.421 1.86h2.659a2.5 2.5 0 0 1 2.421-1.86 2.5 2.5 0 0 1 2.422 1.86h2.578V1.241h-2.578A2.5 2.5 0 0 1 52.75 3.1a2.5 2.5 0 0 1-2.421-1.86h-2.659A2.5 2.5 0 0 1 45.25 3.1a2.5 2.5 0 0 1-2.421-1.86H40.17a2.5 2.5 0 0 1-2.421 1.86 2.5 2.5 0 0 1-2.422-1.86H32.67a2.5 2.5 0 0 1-2.421 1.86 2.5 2.5 0 0 1-2.422-1.86H25.25v9.303c0 .343-.28.62-.625.62a.623.623 0 0 1-.625-.62V.62c0-.342.28-.62.625-.62h3.75c.345 0 .625.278.625.62 0 .684.561 1.24 1.25 1.24S31.5 1.305 31.5.62c0-.342.28-.62.625-.62h3.75c.345 0 .625.278.625.62 0 .684.561 1.24 1.25 1.24S39 1.305 39 .62c0-.342.28-.62.625-.62h3.75c.345 0 .625.278.625.62 0 .684.561 1.24 1.25 1.24S46.5 1.305 46.5.62c0-.342.28-.62.625-.62h3.75c.345 0 .625.278.625.62 0 .684.561 1.24 1.25 1.24S54 1.305 54 .62c0-.342.28-.62.625-.62h3.75c.345 0 .625.278.625.62v47.76c0 .342-.28.62-.625.62z"/></g><g><g><path fill="#ffd740" d="M49.748 36.065H34.279c-.712 0-1.289-.55-1.289-1.225V20.145c0-.676.577-1.225 1.289-1.225h15.469c.711 0 1.289.549 1.289 1.225V34.84c0 .676-.578 1.225-1.29 1.225z"/></g><g><path fill="#263238" d="M49.742 19.535c.356 0 .645.274.645.612v14.695c0 .338-.289.613-.645.613H34.274c-.356 0-.645-.275-.645-.613V20.147c0-.338.289-.612.645-.612zm1.934 15.307V20.147c0-1.013-.868-1.837-1.934-1.837H34.274c-1.066 0-1.934.824-1.934 1.837v14.695c0 1.013.868 1.837 1.934 1.837h15.468c1.066 0 1.934-.824 1.934-1.837z"/></g></g><g><path fill="#263238" d="M42.5 26c-.276 0-.5-.269-.5-.6v-1.8c0-.331.224-.6.5-.6s.5.269.5.6v1.8c0 .331-.224.6-.5.6z"/></g><g><path fill="#263238" d="M42.5 34c-.276 0-.5-.269-.5-.6v-1.8c0-.331.224-.6.5-.6s.5.269.5.6v1.8c0 .331-.224.6-.5.6z"/></g><g><path fill="#263238" d="M43.9 32h-3.3a.592.592 0 0 1-.6-.583c0-.322.269-.584.6-.584h3.3c.497 0 .9-.392.9-.875a.888.888 0 0 0-.9-.875h-1.8c-1.158 0-2.1-.915-2.1-2.041S40.942 25 42.1 25h2.7c.331 0 .6.261.6.583a.592.592 0 0 1-.6.584h-2.7c-.497 0-.9.392-.9.875s.403.875.9.875h1.8c1.158 0 2.1.915 2.1 2.041S45.058 32 43.9 32z"/></g><g><path fill="#263238" d="M21.36 26h-6.72c-.353 0-.64-.224-.64-.5s.287-.5.64-.5h6.72c.353 0 .64.224.64.5s-.287.5-.64.5z"/></g><g><path fill="#263238" d="M21.36 31h-6.72c-.353 0-.64-.224-.64-.5s.287-.5.64-.5h6.72c.353 0 .64.224.64.5s-.287.5-.64.5z"/></g><g><path fill="#263238" d="M21.36 37h-6.72c-.353 0-.64-.224-.64-.5s.287-.5.64-.5h6.72c.353 0 .64.224.64.5s-.287.5-.64.5z"/></g><g><path fill="#263238" d="M33.385 42h-18.77c-.34 0-.615-.224-.615-.5s.276-.5.615-.5h18.77c.34 0 .615.224.615.5s-.276.5-.615.5z"/></g><g><path fill="#263238" d="M15.273 46.2h11.464v3.6H15.273zM28 50.4v-4.8c0-.331-.285-.6-.636-.6H14.636c-.35 0-.636.269-.636.6v4.8c0 .331.285.6.636.6h12.728c.35 0 .636-.269.636-.6z"/></g><g><path fill="#263238" d="M2.25 8H.75C.336 8 0 7.776 0 7.5S.336 7 .75 7h1.5c.414 0 .75.224.75.5s-.336.5-.75.5z"/></g><g><path fill="#263238" d="M17.375 8H3.625C3.28 8 3 7.776 3 7.5s.28-.5.625-.5h13.75c.345 0 .625.224.625.5s-.28.5-.625.5z"/></g><g><path fill="#263238" d="M63.25 55h-1.5c-.414 0-.75-.224-.75-.5s.336-.5.75-.5h1.5c.414 0 .75.224.75.5s-.336.5-.75.5z"/></g><g><path fill="#263238" d="M60.375 55h-13.75c-.345 0-.625-.224-.625-.5s.28-.5.625-.5h13.75c.345 0 .625.224.625.5s-.28.5-.625.5z"/></g></g></g></svg>