<svg xmlns="http://www.w3.org/2000/svg" width="39" height="41" viewBox="0 0 39 41"><g><g><g><g><g opacity=".3"><path d="M2.52 29.5L8.499 41s33.864-.774 28.325-27.165C21.4 1.665 21.5 0 21.5 0z"/></g></g><g><g><path fill="#feffff" d="M9 21.5a.5.5 0 1 0-1 0 .5.5 0 0 0 1 0z"/></g><g><path fill="#feffff" d="M8.5 16a.5.5 0 1 0 .001 1 .5.5 0 0 0-.001-1z"/></g><g><path fill="#feffff" d="M9 11.5a.5.5 0 1 0-1 0 .5.5 0 0 0 1 0z"/></g><g><path fill="#feffff" d="M23.505 7.557a2.17 2.17 0 0 1 2.162 1.958 2.166 2.166 0 0 1-1.75 2.333v.608a.462.462 0 0 1-.924 0v-.63a2.17 2.17 0 0 1-1.66-2.103.462.462 0 0 1 .925 0c0 .686.558 1.243 1.247 1.243.689 0 1.247-.557 1.247-1.243 0-.687-.558-1.244-1.247-1.244a2.17 2.17 0 0 1-2.156-1.908 2.166 2.166 0 0 1 1.644-2.362v-.581a.462.462 0 0 1 .925 0v.56a2.17 2.17 0 0 1 1.759 2.126.462.462 0 0 1-.925 0c-.001-.678-.547-1.231-1.227-1.243a.45.45 0 0 1-.112.004A1.244 1.244 0 0 0 22.26 6.36a1.244 1.244 0 0 0 1.245 1.197zM17 7.5a6.5 6.5 0 0 0 13 0A6.507 6.507 0 0 0 23.5 1 6.5 6.5 0 0 0 17 7.5z"/></g><g><path fill="#feffff" d="M16.687 30.779c-.772-.61-1.205-1.438-1.207-2.303V27H0v1.482C.008 29.873 1.426 30.998 3.175 31H17a2.02 2.02 0 0 1-.313-.221z"/></g><g><path fill="#feffff" d="M18.833 15.292c0 .299-.219.541-.49.541H10.88c-.27 0-.49-.242-.49-.541 0-.3.22-.542.49-.542h7.464c.271 0 .49.243.49.542zm-.49 5.958H10.88c-.27 0-.49-.242-.49-.542 0-.299.22-.541.49-.541h7.464c.271 0 .49.242.49.541 0 .3-.219.542-.49.542zM7.745 12.583c-.87 0-1.578-.729-1.578-1.625s.708-1.625 1.578-1.625c.87 0 1.578.73 1.578 1.625 0 .896-.708 1.625-1.578 1.625zm0 4.334c-.87 0-1.578-.73-1.578-1.625 0-.896.708-1.625 1.578-1.625.87 0 1.578.729 1.578 1.625s-.708 1.625-1.578 1.625zm0 5.416c-.87 0-1.578-.729-1.578-1.625s.708-1.625 1.578-1.625c.87 0 1.578.73 1.578 1.625 0 .896-.708 1.625-1.578 1.625zm9.253-11.35h-5.77a.488.488 0 0 1-.476-.498c0-.275.214-.499.477-.499h5.247a8.212 8.212 0 0 1-.694-3.332c.002-.556.057-1.11.164-1.654H3.126L3 24.589h12.015a.425.425 0 0 1 .325.132c.086.09.132.213.127.34v2.523c.009 1.887 1.47 3.413 3.273 3.416h.011C20.547 30.996 22 29.472 22 27.592V14.564c-2.072-.41-3.885-1.708-5.002-3.58z"/></g></g></g></g></g></svg>