<svg xmlns="http://www.w3.org/2000/svg" width="25" height="23" viewBox="0 0 25 23"><g><g><g><path fill="#adacb4" d="M24.268 1h-.733v2.096c0 1.296-.986 2.35-2.197 2.35-1.212 0-2.198-1.054-2.198-2.35V1H5.86v2.096c0 1.296-.986 2.35-2.198 2.35-1.211 0-2.197-1.054-2.197-2.35V1H.732C.328 1 0 1.35 0 1.783V7h25V1.783c0-.432-.328-.783-.732-.783z"/></g><g><path fill="#adacb4" d="M21 4c-.552 0-1-.322-1-.72V.72c0-.398.448-.72 1-.72s1 .322 1 .72v2.56c0 .398-.448.72-1 .72z"/></g><g><path fill="#adacb4" d="M4 4c-.552 0-1-.322-1-.72V.72C3 .322 3.448 0 4 0s1 .322 1 .72v2.56C5 3.678 4.552 4 4 4z"/></g><g><path fill="#adacb4" d="M15.99 13c-.619 0-.99.446-.99 1.426v.16c0 1.03.371 1.414 1 1.414.61 0 1-.36 1-1.302v-.272c0-.98-.381-1.426-1.01-1.426z"/></g><g><path fill="#adacb4" d="M18.873 16.986c0 1.87-1.292 2.565-2.95 2.565-1.937 0-2.778-1.109-2.778-2.05 0-.459.244-.604.744-.604.439 0 .828.112.828.549 0 .526.573.828 1.255.828.817 0 1.317-.403 1.317-1.288v-1.22c-.403.436-.988.57-1.621.57-1.377 0-2.523-.548-2.523-2.317v-.157c0-1.87 1.256-2.564 2.852-2.564 1.608 0 2.876.694 2.876 2.564zm-7.57 2.488H6.955c-.28 0-.695-.18-.695-.459V17.93c0-1.79 3.93-2.74 3.93-4.317 0-.459-.33-.996-1.135-.996-.598 0-1.086.291-1.086.985 0 .268-.305.537-.83.537-.415 0-.72-.18-.72-.783 0-1.275 1.269-2.058 2.624-2.058 1.416 0 2.734.85 2.734 2.27 0 2.416-3.87 3.199-3.87 4.362v.269h3.394c.269 0 .5.29.5.626 0 .335-.231.649-.5.649zM0 8v14.328C0 22.7.328 23 .732 23h23.536c.404 0 .732-.3.732-.672V8z"/></g></g></g></svg>