<svg xmlns="http://www.w3.org/2000/svg" width="24" height="24" viewBox="0 0 24 24"><defs><clipPath id="4igya"><path fill="#fff" d="M17.133 13.714V24H6.857V13.714C6.857 12 8.57 12 8.57 12h6.85c1.713 0 1.713 1.714 1.713 1.714zM9.429 7.72A2.574 2.574 0 0 1 12 5.143a2.574 2.574 0 0 1 2.571 2.576A2.574 2.574 0 0 1 12 10.296a2.574 2.574 0 0 1-2.571-2.577zM2.57 2.571a2.571 2.571 0 1 1 5.143 0 2.571 2.571 0 0 1-5.143 0zm6 7.715s-3.428 0-3.428 3.428v5.143H0V8.571c0-1.714 1.714-1.714 1.714-1.714h6.087a4.248 4.248 0 0 0 .79 3.429zM24 8.57v10.286h-5.143v-5.143s0-3.428-3.428-3.428h-.018c.54-.719.875-1.602.875-2.572 0-.294-.03-.58-.088-.857h6.088C24 6.857 24 8.571 24 8.571zm-7.714-6a2.571 2.571 0 1 1 5.143 0 2.571 2.571 0 0 1-5.143 0z"/></clipPath></defs><g><g><path fill="#feffff" d="M17.133 13.714V24H6.857V13.714C6.857 12 8.57 12 8.57 12h6.85c1.713 0 1.713 1.714 1.713 1.714zM9.429 7.72A2.574 2.574 0 0 1 12 5.143a2.574 2.574 0 0 1 2.571 2.576A2.574 2.574 0 0 1 12 10.296a2.574 2.574 0 0 1-2.571-2.577zM2.57 2.571a2.571 2.571 0 1 1 5.143 0 2.571 2.571 0 0 1-5.143 0zm6 7.715s-3.428 0-3.428 3.428v5.143H0V8.571c0-1.714 1.714-1.714 1.714-1.714h6.087a4.248 4.248 0 0 0 .79 3.429zM24 8.57v10.286h-5.143v-5.143s0-3.428-3.428-3.428h-.018c.54-.719.875-1.602.875-2.572 0-.294-.03-.58-.088-.857h6.088C24 6.857 24 8.571 24 8.571zm-7.714-6a2.571 2.571 0 1 1 5.143 0 2.571 2.571 0 0 1-5.143 0z"/><path fill="none" stroke="#dfd9d9" stroke-miterlimit="50" stroke-width="2" d="M17.133 13.714V24H6.857V13.714C6.857 12 8.57 12 8.57 12h6.85c1.713 0 1.713 1.714 1.713 1.714zM9.429 7.72A2.574 2.574 0 0 1 12 5.143a2.574 2.574 0 0 1 2.571 2.576A2.574 2.574 0 0 1 12 10.296a2.574 2.574 0 0 1-2.571-2.577zM2.57 2.571a2.571 2.571 0 1 1 5.143 0 2.571 2.571 0 0 1-5.143 0zm6 7.715s-3.428 0-3.428 3.428v5.143H0V8.571c0-1.714 1.714-1.714 1.714-1.714h6.087a4.248 4.248 0 0 0 .79 3.429zM24 8.57v10.286h-5.143v-5.143s0-3.428-3.428-3.428h-.018c.54-.719.875-1.602.875-2.572 0-.294-.03-.58-.088-.857h6.088C24 6.857 24 8.571 24 8.571zm-7.714-6a2.571 2.571 0 1 1 5.143 0 2.571 2.571 0 0 1-5.143 0z" clip-path="url(&quot;#4igya&quot;)"/></g></g></svg>