<svg xmlns="http://www.w3.org/2000/svg" width="64" height="54" viewBox="0 0 64 54"><g><g><g><path fill="#263238" d="M13.77 53.143H3.38c-.287 0-.52-.256-.52-.572 0-.315.233-.571.52-.571h10.39c.286 0 .519.256.519.571 0 .316-.233.572-.52.572z"/></g><g><path fill="#263238" d="M1.714 53.143H.571a.572.572 0 0 1 0-1.143h1.143a.572.572 0 0 1 0 1.143z"/></g><g><path fill="#263238" d="M60.62 53.143H50.23c-.287 0-.52-.256-.52-.572 0-.315.233-.571.52-.571h10.39c.286 0 .519.256.519.571 0 .316-.233.572-.52.572z"/></g><g><path fill="#263238" d="M63.424 53.143h-1.143a.572.572 0 0 1 0-1.143h1.143a.572.572 0 0 1 0 1.143z"/></g><g><path fill="#263238" d="M30.919 8.003h-4.115c-.284 0-.514-.256-.514-.572 0-.315.23-.571.514-.571h4.115c.283 0 .514.256.514.571 0 .316-.23.572-.514.572z"/></g><g><path fill="#263238" d="M37.199 2.853h-4.115c-.284 0-.514-.256-.514-.572 0-.315.23-.571.514-.571H37.2c.283 0 .514.256.514.571 0 .316-.23.572-.514.572z"/></g><g><path fill="#263238" d="M35.431 5.143c-.315 0-.571-.23-.571-.514V.514c0-.284.256-.514.571-.514.316 0 .572.23.572.514V4.63c0 .283-.256.514-.572.514z"/></g><g><path fill="#263238" d="M28.571 10.283c-.315 0-.571-.23-.571-.514V5.654c0-.284.256-.514.571-.514.316 0 .572.23.572.514V9.77c0 .283-.256.514-.572.514z"/></g><g><path fill="#263238" d="M39.554 26.276c0 4.168-3.39 7.558-7.558 7.558-4.168 0-7.558-3.39-7.558-7.558 0-4.167 3.39-7.557 7.558-7.557 4.168 0 7.558 3.39 7.558 7.557zm1.019.005c0-4.726-3.845-8.571-8.572-8.571-4.726 0-8.571 3.845-8.571 8.571 0 4.727 3.845 8.572 8.571 8.572 4.728 0 8.572-3.845 8.572-8.572z"/></g><g><g><path fill="#ffd740" d="M37.92 21.58l.618-.51a8.29 8.29 0 0 0-6.362-2.96c-4.576 0-8.286 3.684-8.286 8.229h.782a20.8 20.8 0 0 0 13.249-4.759z"/></g><g><path fill="#263238" d="M32.184 18.629c2.134 0 4.155.866 5.62 2.39l-.207.17a20.318 20.318 0 0 1-12.917 4.64h-.247c.268-4.015 3.642-7.2 7.75-7.2zm6.076 3.352l.617-.51a.514.514 0 0 0 .067-.726 8.807 8.807 0 0 0-6.76-3.145c-4.855 0-8.804 3.922-8.804 8.743 0 .284.232.514.518.514h.782c4.952 0 9.775-1.732 13.58-4.876z"/></g></g><g><path fill="#263238" d="M34.861 35.997a.562.562 0 0 1-.571-.551V33.69c0-.304.256-.551.571-.551.316 0 .572.247.572.551v1.755a.562.562 0 0 1-.572.551z"/></g><g><path fill="#263238" d="M29.142 35.997a.562.562 0 0 1-.57-.553l-.002-1.75c0-.305.256-.554.57-.554.316 0 .572.248.572.553v1.751a.563.563 0 0 1-.57.553z"/></g><g><path fill="#263238" d="M29.193 36.68l1.861 2.854h-2.482zm5.62 0l.62 2.866h-2.481zm1.648 3.7a.527.527 0 0 0 .1-.437l-1.016-4.675a.512.512 0 0 0-.403-.398.5.5 0 0 0-.516.223l-2.624 4.025-2.625-4.027a.505.505 0 0 0-.517-.223.513.513 0 0 0-.402.398l-1.016 4.675a.526.526 0 0 0 .1.437.502.502 0 0 0 .396.195l8.128.001c.154 0 .3-.07.395-.194z"/></g><g><path fill="#263238" d="M25.141 50.86c-.315 0-.571-.224-.571-.5v-7c0-.276.256-.5.571-.5.316 0 .572.224.572.5v7c0 .276-.255.5-.572.5z"/></g><g><path fill="#263238" d="M19.944 51.431a.516.516 0 0 1-.514-.517l.001-8.028a5.702 5.702 0 0 1 3.359-5.205l6.202-2.777a.514.514 0 0 1 .68.263.52.52 0 0 1-.262.684l-6.203 2.777a4.665 4.665 0 0 0-2.748 4.258v8.028c0 .285-.23.517-.515.517z"/></g><g><path fill="#263238" d="M38.861 50.86c-.315 0-.571-.224-.571-.5v-7c0-.276.256-.5.571-.5.316 0 .572.224.572.5v7c0 .276-.256.5-.572.5z"/></g><g><path fill="#263238" d="M44.061 51.431a.516.516 0 0 1-.514-.518v-8.027a4.665 4.665 0 0 0-2.748-4.258l-6.203-2.777a.52.52 0 0 1-.262-.684.516.516 0 0 1 .68-.263l6.202 2.777a5.702 5.702 0 0 1 3.36 5.205v8.027c0 .286-.23.518-.515.518z"/></g><g><path fill="#263238" d="M20.124 18.856c0 4.168-3.39 7.558-7.558 7.558-4.168 0-7.558-3.39-7.558-7.558 0-4.168 3.39-7.558 7.558-7.558 4.168 0 7.558 3.39 7.558 7.558zm1.019.005c0-4.726-3.845-8.571-8.572-8.571C7.845 10.29 4 14.135 4 18.861c0 4.727 3.845 8.572 8.571 8.572 4.728 0 8.572-3.845 8.572-8.572z"/></g><g><g><path fill="#ffd740" d="M18.49 14.15l.618-.51a8.29 8.29 0 0 0-6.362-2.96c-4.576 0-8.286 3.684-8.286 8.229h.782c4.84 0 9.529-1.683 13.249-4.759z"/></g><g><path fill="#263238" d="M12.754 11.199c2.134 0 4.154.866 5.618 2.391l-.205.169a20.318 20.318 0 0 1-12.917 4.64h-.247c.268-4.015 3.642-7.2 7.75-7.2zm6.075 3.352l.617-.51a.515.515 0 0 0 .068-.725 8.808 8.808 0 0 0-6.76-3.146c-4.855 0-8.804 3.922-8.804 8.743 0 .284.232.514.518.514h.782c4.952 0 9.774-1.732 13.58-4.876z"/></g></g><g><path fill="#263238" d="M16.001 28.567a.562.562 0 0 1-.571-.551V26.26c0-.304.256-.551.571-.551.316 0 .572.247.572.551v1.755a.562.562 0 0 1-.572.551z"/></g><g><path fill="#263238" d="M9.712 28.567a.562.562 0 0 1-.57-.553l-.002-1.75c0-.305.256-.554.57-.554.316 0 .572.248.572.553v1.751a.563.563 0 0 1-.57.553z"/></g><g><path fill="#263238" d="M9.762 29.25l1.861 2.865H9.142zm5.621 0l.62 2.865h-2.481zm1.648 3.7a.527.527 0 0 0 .1-.437l-1.016-4.675a.512.512 0 0 0-.403-.398.495.495 0 0 0-.516.222l-2.624 4.027-2.625-4.028a.5.5 0 0 0-.517-.222.513.513 0 0 0-.402.398l-1.016 4.675a.526.526 0 0 0 .1.437.5.5 0 0 0 .396.195h8.128c.154 0 .3-.07.395-.194z"/></g><g><path fill="#263238" d="M5.711 46.286c-.315 0-.571-.23-.571-.515v-9.257c0-.284.256-.514.571-.514.316 0 .572.23.572.514v9.257c0 .284-.255.515-.572.515z"/></g><g><path fill="#263238" d="M.514 46.286A.511.511 0 0 1 0 45.778l.001-9.905a5.59 5.59 0 0 1 3.359-5.106l6.202-2.723a.516.516 0 0 1 .68.258.505.505 0 0 1-.262.67l-6.203 2.724a4.573 4.573 0 0 0-2.748 4.177v9.905c0 .28-.23.508-.515.508z"/></g><g><path fill="#263238" d="M24.629 35.43a.52.52 0 0 1-.512-.459c-.207-1.626-1.25-3.05-2.722-3.715l-6.228-2.82a.53.53 0 0 1-.263-.694.514.514 0 0 1 .682-.267l6.229 2.82c1.799.813 3.073 2.554 3.326 4.54a.526.526 0 0 1-.512.595z"/></g><g><path fill="#263238" d="M58.984 18.856c0 4.168-3.39 7.558-7.558 7.558-4.168 0-7.558-3.39-7.558-7.558 0-4.168 3.39-7.558 7.558-7.558 4.168 0 7.558 3.39 7.558 7.558zm1.019.005c0-4.726-3.845-8.571-8.572-8.571-4.726 0-8.571 3.845-8.571 8.571 0 4.727 3.845 8.572 8.571 8.572 4.727 0 8.572-3.845 8.572-8.572z"/></g><g><g><path fill="#ffd740" d="M57.35 14.15l.618-.51a8.29 8.29 0 0 0-6.362-2.96c-4.576 0-8.286 3.684-8.286 8.229h.782c4.84 0 9.529-1.683 13.249-4.759z"/></g><g><path fill="#263238" d="M51.604 11.199c2.135 0 4.154.866 5.619 2.391l-.206.169a20.314 20.314 0 0 1-12.916 4.64h-.247c.267-4.015 3.641-7.2 7.75-7.2zm6.075 3.352l.617-.51a.515.515 0 0 0 .068-.725 8.808 8.808 0 0 0-6.76-3.146c-4.855 0-8.804 3.922-8.804 8.743 0 .284.232.514.518.514h.782c4.952 0 9.774-1.732 13.579-4.876z"/></g></g><g><path fill="#263238" d="M48.571 28.567a.562.562 0 0 1-.571-.551V26.26c0-.304.256-.551.571-.551.316 0 .572.247.572.551v1.755a.562.562 0 0 1-.572.551z"/></g><g><path fill="#263238" d="M54.281 28.567a.563.563 0 0 1-.571-.553v-1.75c0-.306.256-.554.571-.554.316 0 .572.248.572.553v1.751a.563.563 0 0 1-.572.553z"/></g><g><path fill="#263238" d="M48.622 29.25l1.86 2.865h-2.48zm5.62 0l.619 2.865h-2.48zm1.65 3.7a.527.527 0 0 0 .099-.437l-1.016-4.675a.512.512 0 0 0-.402-.398.496.496 0 0 0-.517.222l-2.625 4.027-2.625-4.028a.502.502 0 0 0-.516-.222.513.513 0 0 0-.402.398l-1.016 4.675a.526.526 0 0 0 .1.437.5.5 0 0 0 .396.195h8.127c.154 0 .3-.07.396-.194z"/></g><g><path fill="#263238" d="M58.281 46.286c-.315 0-.571-.23-.571-.515v-9.257c0-.284.256-.514.571-.514.316 0 .572.23.572.514v9.257c0 .284-.256.515-.572.515z"/></g><g><path fill="#263238" d="M63.481 46.286a.511.511 0 0 1-.514-.508v-9.905a4.574 4.574 0 0 0-2.748-4.178l-6.203-2.723a.506.506 0 0 1-.262-.67.517.517 0 0 1 .68-.258l6.202 2.723a5.59 5.59 0 0 1 3.36 5.106v9.905c0 .28-.23.508-.515.508z"/></g><g><path fill="#263238" d="M39.377 35.43a.526.526 0 0 1-.513-.594c.253-1.988 1.528-3.728 3.327-4.541l6.228-2.82a.513.513 0 0 1 .682.267.53.53 0 0 1-.262.695l-6.229 2.819c-1.472.666-2.515 2.089-2.721 3.715a.518.518 0 0 1-.512.459z"/></g></g></g></svg>