<svg xmlns="http://www.w3.org/2000/svg" width="20" height="28" viewBox="0 0 20 28"><g><g><g><path fill="#feffff" d="M15.8 12.882l-6.865 6.68a.663.663 0 0 1-.925 0L4.2 15.855a.658.658 0 0 1-.012-.933.663.663 0 0 1 .936-.01l3.349 3.258 6.403-6.231a.663.663 0 0 1 .936.01c.255.262.25.679-.011.934zM17.3 1.75h-2.513v.912c-.002 1.75-1.328 3.17-2.964 3.17H7.427c-1.636 0-2.962-1.42-2.964-3.17V1.75H1.95C.874 1.752.001 2.684 0 3.836v22.078C.001 27.066.874 27.999 1.95 28H17.3c1.076-.001 1.949-.934 1.95-2.086V3.836c-.001-1.152-.874-2.084-1.95-2.086z"/></g><g><path fill="#feffff" d="M7.981 5.25h4.173c1.022-.001 1.85-.962 1.851-2.147v-.938h-1.57c-.226 0-.421-.183-.47-.438-.19-1-.987-1.727-1.897-1.727S8.359.726 8.17 1.727c-.048.256-.244.438-.47.438H6.13v.939c.001 1.184.83 2.145 1.851 2.146z"/></g></g></g></svg>