<svg xmlns="http://www.w3.org/2000/svg" width="32" height="28" viewBox="0 0 32 28"><g><g><g><path fill="#feffff" d="M16 14a7 7 0 1 0 0-14 7 7 0 0 0 0 14z"/></g><g><path fill="#feffff" d="M23 23a1 1 0 1 0 0-2 1 1 0 0 0 0 2z"/></g><g><path fill="#feffff" d="M11 18.966c-.43-.598-.946-.966-1.491-.966-.563 0-1.085.368-1.509 1 .812-.265 1.845-.359 3-.034z"/></g><g><path fill="#feffff" d="M31.974 25.558c-.79-5.058-3.96-9.34-8.33-11.684.203 1.438.405 3.854-.078 5.991.967.33 1.679 1.23 1.679 2.319a2.454 2.454 0 0 1-2.463 2.442c-1.346 0-2.463-1.082-2.463-2.442 0-1.16.81-2.118 1.907-2.364.66-2.52.124-5.764-.026-6.62a4.113 4.113 0 0 0-.536-.2A8.144 8.144 0 0 1 16 15.293a8.071 8.071 0 0 1-5.586-2.241c-.229.48-.66 1.638-.582 3.374 2.157.402 3.81 2.87 3.81 5.868 0 1.108-.23 2.19-.66 3.122-.23.68-1.222.958-1.68.958a1.24 1.24 0 0 1-1.24-1.23c0-.674.561-1.23 1.24-1.23.203 0 .484.051.791.148.503-1.651.124-3.322-.124-3.977-2.437-1.055-4.671-.33-5.488 0-.229.655-.647 2.177-.124 3.977.307-.123.581-.175.79-.175a1.24 1.24 0 0 1 1.242 1.23c0 .674-.562 1.231-1.242 1.231-.43 0-1.398-.278-1.653-.906-.457-.959-.686-2.04-.686-3.174 0-2.947 1.627-5.388 3.73-5.842a9.619 9.619 0 0 1 .282-2.791C4.188 15.947.836 20.325.026 25.558-.177 26.841.836 28 2.136 28h27.708c1.32.006 2.333-1.153 2.13-2.442z"/></g></g></g></svg>