<svg xmlns="http://www.w3.org/2000/svg" width="27" height="26" viewBox="0 0 27 26"><g><g><g><path fill="#feffff" d="M7.474 5.847c-.86.004-1.573.537-1.907 1.426a.9.9 0 1 1-1.683-.634c.599-1.592 1.972-2.584 3.583-2.59h.004a.9.9 0 0 1 .003 1.798zm19.007-.476C25.361 2.394 22.64.461 19.547.45h-.018c-1.624 0-2.805.86-3.848 1.62-.792.576-1.477 1.075-2.181 1.081-.704-.006-1.389-.505-2.18-1.082C10.276 1.31 9.094.45 7.47.45h-.018C4.361.462 1.638 2.394.52 5.371c-1.264 3.362.026 6.025 1.274 8.6.19.39.385.796.568 1.196.29.63.573 1.763.872 2.962.704 2.818 1.503 6.013 3.285 7.066.608.359 1.298.45 1.997.265 1.849-.49 2.475-2.596 3.027-4.454.585-1.968 1.01-3.167 1.958-3.178.948.011 1.373 1.21 1.958 3.178.553 1.858 1.178 3.963 3.027 4.454.235.062.47.093.7.093.454 0 .894-.12 1.297-.358 1.782-1.053 2.58-4.248 3.285-7.066.3-1.2.583-2.332.872-2.962.183-.4.379-.805.569-1.196 1.247-2.575 2.537-5.238 1.273-8.6z"/></g></g></g></svg>