<svg xmlns="http://www.w3.org/2000/svg" width="20" height="28" viewBox="0 0 20 28"><g><g><g><path fill="#feffff" d="M14.449 2.079h-2.175c-.188 0-.35-.155-.39-.371C11.703.718 10.906 0 9.99 0h-.006C9.09 0 8.312.71 8.09 1.726c-.045.207-.204.352-.386.353H5.56v3.754h8.889z"/></g><g><path fill="#feffff" d="M15.552 11.667c0-.645-.497-1.167-1.111-1.167s-1.111.522-1.111 1.167c0 .644.497 1.167 1.111 1.166.613 0 1.11-.522 1.111-1.166z"/></g><g><path fill="#feffff" d="M3.897 24.873h12.196a.412.412 0 1 1 0 .827H3.897a.412.412 0 0 1-.411-.414c0-.228.184-.413.411-.413zm10.853-1.718a.41.41 0 0 1-.412.408H5.662a.41.41 0 0 1-.412-.408.41.41 0 0 1 .412-.409h8.676a.41.41 0 0 1 .412.409zM3.885 8.554a.424.424 0 0 1 .316-.162h1.093v-.296a.413.413 0 1 1 .824 0v1.301a.413.413 0 1 1-.824 0V9.22h-.6l.87 4.906h5.073l.871-4.906h-.567v.177a.413.413 0 1 1-.823 0v-1.3a.413.413 0 1 1 .823 0v.295h1.06c.124.006.24.066.316.164.078.1.11.23.09.355l-1.02 5.693a.42.42 0 0 1-.406.35H8.53v2.896a2.83 2.83 0 0 0 2.824 2.838 2.83 2.83 0 0 0 2.823-2.838v-4.178a1.687 1.687 0 0 1-1.311-1.805 1.684 1.684 0 0 1 1.62-1.531 1.682 1.682 0 0 1 1.712 1.426A1.688 1.688 0 0 1 15 13.646v4.204a3.656 3.656 0 0 1-3.647 3.665 3.656 3.656 0 0 1-3.647-3.665v-2.896H5.22a.421.421 0 0 1-.406-.35l-1.02-5.7a.442.442 0 0 1 .09-.35zM1.84 28.004H18.16c1.004 0 1.839-.773 1.839-1.723V6.4c0-.95-.835-1.73-1.839-1.73h-2.75v1.577c0 .229-.162.431-.39.431H4.98c-.228 0-.39-.202-.39-.43V4.67h-2.75C.835 4.67 0 5.45 0 6.4V26.28c0 .95.835 1.722 1.839 1.722z"/></g></g></g></svg>