<svg xmlns="http://www.w3.org/2000/svg" width="37" height="41" viewBox="0 0 37 41"><g><g><g><g opacity=".2"><path d="M1 31.127l9.563 9.431S40.99 40.775 36.398 15C20.5 7.917 19.284 7.56 19.284 7.56z"/></g><g><g><path fill="#feffff" d="M23.707 13.391c-1.966-.081-3.093-.385-4.27-.708-.954-.262-1.933-.53-3.356-.674l4.26-4.124 4.527 4.383zm-4.06 3.932L18.075 15.8a.65.65 0 0 1 0-.939.7.7 0 0 1 .968 0l1.571 1.523zm-3.426 3.344l-.894-.862a.65.65 0 0 1 0-.943c.27-.26.707-.26.977 0l.893.862zM12.778 24L11.2 22.471a.652.652 0 0 1 0-.942.702.702 0 0 1 .973 0l1.576 1.528zm20.02-18.471l-5.5-5.334a.702.702 0 0 0-.972 0 .652.652 0 0 0 0 .943l.89.862-3.556 3.448-2.264-2.195a2.11 2.11 0 0 0-2.917 0 1.959 1.959 0 0 0 0 2.828l.89.862L5.7 20.195a.656.656 0 0 0-.201.472c0 .107.023 2.386 1.142 3.95l-6.44 6.245a.652.652 0 0 0 0 .943c.134.13.31.195.486.195a.697.697 0 0 0 .486-.195l6.44-6.245c1.605 1.083 3.95 1.107 4.074 1.107.182 0 .357-.07.486-.196L25.84 13.22l.89.862c.389.377.907.586 1.458.586.55 0 1.068-.209 1.458-.586a1.959 1.959 0 0 0 0-2.828l-2.264-2.196 3.555-3.448.89.862c.134.13.31.196.486.196a.697.697 0 0 0 .486-.196.652.652 0 0 0 0-.942z"/></g></g></g></g></g></svg>