<svg xmlns="http://www.w3.org/2000/svg" width="27" height="26" viewBox="0 0 27 26"><g><g><path fill="#feffff" d="M19.397 10.889c-1.61-.067-2.53-.314-3.494-.577-.78-.213-1.581-.431-2.746-.549l3.485-3.356 3.705 3.567zm-3.324 3.184l-1.284-1.236a.525.525 0 0 1 0-.762.575.575 0 0 1 .792 0l1.284 1.236zm-2.806 2.709l-.727-.696a.522.522 0 0 1 0-.762.58.58 0 0 1 .795 0l.727.697zM10.455 19.5l-1.29-1.242a.527.527 0 0 1 0-.766.578.578 0 0 1 .795 0l1.29 1.242zm16.38-15.008l-4.5-4.333a.578.578 0 0 0-.795 0 .527.527 0 0 0 0 .766l.727.7-2.91 2.801-1.851-1.783a1.735 1.735 0 0 0-2.387 0 1.584 1.584 0 0 0 0 2.298l.728.7L4.665 16.409a.531.531 0 0 0-.165.383c0 .087.019 1.939.934 3.209l-5.27 5.074a.527.527 0 0 0 0 .766c.11.106.255.159.399.159a.572.572 0 0 0 .397-.159l5.27-5.074c1.313.88 3.231.9 3.333.9.149 0 .292-.057.397-.159L21.142 10.74l.727.7a1.71 1.71 0 0 0 1.194.477c.45 0 .874-.17 1.193-.476a1.584 1.584 0 0 0 0-2.298l-1.853-1.784 2.91-2.801.727.7c.11.106.254.159.398.159a.572.572 0 0 0 .397-.159.527.527 0 0 0 0-.766z"/></g></g></svg>