<svg xmlns="http://www.w3.org/2000/svg" width="26" height="20" viewBox="0 0 26 20"><g><g><g><path fill="#feffff" d="M17.511 10.185c0-.179-.158-.323-.353-.323l-2.328.002V7.732c0-.178-.158-.323-.353-.323h-2.964c-.195 0-.353.145-.353.323v2.135l-2.331.002c-.195 0-.353.145-.353.323l.003 2.716a.31.31 0 0 0 .104.228.37.37 0 0 0 .249.094l2.328-.002v2.132c0 .179.158.323.353.323h2.964c.195 0 .353-.144.353-.323v-2.135l2.331-.002a.37.37 0 0 0 .25-.094.31.31 0 0 0 .103-.23zm-4.506 6.884c-3.33 0-6.03-2.47-6.03-5.518 0-3.047 2.7-5.517 6.03-5.517s6.03 2.47 6.03 5.517-2.7 5.518-6.03 5.518zM9.703 2.273c0-.54.481-.98 1.073-.98h4.458c.592 0 1.073.44 1.073.98v.82H9.703zm12.951.82h-.505v-.735c0-.178-.158-.323-.353-.323h-1.978c-.195 0-.353.145-.353.323v.734H17.71v-.82C17.71 1.02 16.596 0 15.226 0h-4.452C9.404 0 8.29 1.02 8.29 2.273v.82H6.535v-.735c0-.178-.158-.323-.353-.323H4.204c-.195 0-.353.145-.353.323v.734h-.505C1.498 3.092 0 4.462 0 6.152V16.94C0 18.63 1.498 20 3.346 20h19.308C24.502 20 26 18.63 26 16.94V6.153c0-1.69-1.498-3.06-3.346-3.06z"/></g></g></g></svg>