<svg xmlns="http://www.w3.org/2000/svg" width="20" height="20" viewBox="0 0 20 20"><g><g opacity=".3"><path d="M13.808 13.225A4.977 4.977 0 0 0 14.993 10c0-2.757-2.241-5-4.996-5a4.97 4.97 0 0 0-3.223 1.186L5.217 4.628a9.488 9.488 0 0 1 4.78-1.295c4.141 0 7.797 2.674 9.138 6.667a9.829 9.829 0 0 1-3.64 4.913zM7.378 6.79A4.126 4.126 0 0 1 10 5.833 4.172 4.172 0 0 1 14.167 10c0 .998-.368 1.904-.956 2.622zm5.244 6.422a4.126 4.126 0 0 1-2.622.956A4.172 4.172 0 0 1 5.833 10c0-.998.368-1.904.956-2.622zm-2.629 3.456c-4.141 0-7.797-2.674-9.138-6.667a9.829 9.829 0 0 1 3.64-4.913l1.687 1.688A4.977 4.977 0 0 0 4.997 10c0 2.757 2.241 5 4.996 5a4.97 4.97 0 0 0 3.223-1.185l1.557 1.557a9.488 9.488 0 0 1-4.78 1.295zm9.885 2.622L16.1 15.512a10.674 10.674 0 0 0 3.879-5.385.419.419 0 0 0 0-.254C18.563 5.463 14.552 2.5 10 2.5c-1.952 0-3.802.548-5.393 1.518L.711.122a.416.416 0 1 0-.589.59L3.9 4.487A10.674 10.674 0 0 0 .02 9.873a.419.419 0 0 0 0 .254C1.438 14.537 5.449 17.5 10 17.5c1.952 0 3.802-.548 5.393-1.518l3.896 3.896a.415.415 0 0 0 .589 0 .416.416 0 0 0 0-.59z"/></g></g></svg>