<svg xmlns="http://www.w3.org/2000/svg" width="24" height="25" viewBox="0 0 24 25"><g><g><path fill="#adacb4" d="M5.571 8.79c0-3.57 2.91-6.464 6.5-6.464s6.5 2.895 6.5 6.465-2.91 6.464-6.5 6.464c-3.588-.003-6.496-2.896-6.5-6.464zm12.072-.473a5.571 5.571 0 1 0-11.143 0 5.571 5.571 0 0 0 11.143 0zM10.214 9.71h.929a.929.929 0 1 0 .928-.928 1.854 1.854 0 0 1-.464-3.649V4.14h.929v.994c.817.211 1.39.947 1.393 1.791H13a.929.929 0 1 0-.929.929 1.853 1.853 0 0 1 .465 3.648v.995h-.929V11.5a1.857 1.857 0 0 1-1.393-1.79zm-.793 8.003a3.606 3.606 0 0 1-1.63-1.426 4.348 4.348 0 0 0-.745-.843c.04.023.077.047.116.072.367.297.69.646.955 1.036.257.437.634.792 1.086 1.024.486.07.983.003 1.434-.19a5.063 5.063 0 0 1 1.434-.284c.49.025.974.12 1.436.284.452.193.948.26 1.435.19a2.688 2.688 0 0 0 1.086-1.024c.266-.39.588-.739.955-1.036l.092-.058a4.356 4.356 0 0 0-.724.818 3.598 3.598 0 0 1-1.632 1.418c-.256.079-.524.11-.79.09l4.23 7.248 2.316-2.932h3.668l-5.61-7.245a2.697 2.697 0 0 0 1.053-.636c.222-.444.315-.942.268-1.436-.013-.48.044-.959.17-1.423.166-.433.397-.84.683-1.206.343-.383.569-.856.65-1.363a2.683 2.683 0 0 0-.65-1.364 4.712 4.712 0 0 1-.686-1.205 4.928 4.928 0 0 1-.169-1.423 2.656 2.656 0 0 0-.268-1.437 2.696 2.696 0 0 0-1.302-.703 4.907 4.907 0 0 1-1.3-.593 4.819 4.819 0 0 1-.956-1.036A2.686 2.686 0 0 0 14.941.005a2.695 2.695 0 0 0-1.435.191 5.075 5.075 0 0 1-1.435.283 5.072 5.072 0 0 1-1.436-.283A4.22 4.22 0 0 0 9.518-.04 1.027 1.027 0 0 0 9.2.006a2.688 2.688 0 0 0-1.086 1.025c-.266.39-.588.739-.955 1.036-.402.26-.84.46-1.3.593a2.698 2.698 0 0 0-1.303.703A2.66 2.66 0 0 0 4.288 4.8a4.92 4.92 0 0 1-.17 1.422c-.166.433-.396.84-.682 1.205a2.68 2.68 0 0 0-.65 1.364c.08.507.306.98.65 1.363.287.367.518.773.685 1.206.126.464.183.943.17 1.422-.047.495.046.993.268 1.437.297.29.657.508 1.051.636L0 22.15h4.189l1.832 2.88 4.193-7.233c-.051.006-.102.013-.154.013a2.078 2.078 0 0 1-.64-.098z"/></g></g></svg>