<svg xmlns="http://www.w3.org/2000/svg" width="24" height="23" viewBox="0 0 24 23"><g><g><path fill="#feffff" d="M20.857 12.818H24v1.313h-3.143zm.172-4.202H24v1.445h-1.486v1.444h-5.943v-1.444h1.486V8.616h1.486v1.445h1.486zm-2.886 5.603H16.57v-1.4h3.143v4.201h-1.571zm4.428 1.488H24v1.313h-1.429zm-1.714 5.515H24v1.313h-3.143zm1.714-1.488h-3.047v2.801H18v-4.202h4.571zm-7.428-4.027h1.428v2.889h-1.428zm-6 2.626h1.428v1.313H9.143zm4.457 1.471h2.971v1.366H13.6v1.365H9.143V21.17h2.971v-4.097H9.143v-1.366H13.6zm-.171-8.299h1.428v2.889H13.43zm-4.4 1.51H6.057v1.379H4.571v-2.758h1.486V8.88h1.486v2.757h2.971v1.38H12v1.378H9.029zM3.143 8.88H4.57v1.313H3.143zM1.57 14.394H0V8.879h1.571v2.757h1.572v1.38H1.57zm13.572-4.202h-6V8.747h4.5V7.303h1.5zm-6-4.202h1.428v1.313H9.143zm3-1.4h-3V1.787h1.5v1.4h4.5V4.59h-1.5v1.4h-1.5zM12 .474h3.143v1.313H12zM3.143 18.333H4.57v1.313H3.143zM0 15.707h7.429v6.828H0zm1.486 5.463h4.457v-4.097H1.486zM19.429 3.364h1.428v1.313H19.43zM24 .474v6.829h-7.429V.475zM22.514 1.84h-4.457v4.097h4.457zM3.143 3.364H4.57v1.313H3.143zm4.286 3.939H0V.475h7.429zM5.943 1.84H1.486v4.097h4.457z"/></g></g></svg>