<svg xmlns="http://www.w3.org/2000/svg" width="24" height="24" viewBox="0 0 24 24"><g><g><g><path fill="#feffff" d="M24 16.077A7.947 7.947 0 0 0 19.642 9C19.56 14.832 14.832 19.56 9 19.642A7.947 7.947 0 0 0 16.077 24c1.426 0 2.813-.38 4.031-1.101l3.857 1.066-1.066-3.857A7.895 7.895 0 0 0 24 16.077z"/></g><g><path fill="#feffff" d="M8.31 12.476h1.38v1.38H8.31zm-.691-5.57H6.238A2.765 2.765 0 0 1 9 4.142a2.765 2.765 0 0 1 2.762 2.762c0 .773-.327 1.516-.898 2.039L9.69 10.018v1.077H8.309V9.409l1.623-1.484A1.383 1.383 0 0 0 9 5.525c-.763 0-1.382.619-1.382 1.38zM18 9c0-4.963-4.037-9-9-9S0 4.037 0 9c0 1.617.43 3.192 1.248 4.575L.033 17.967l4.392-1.215A8.972 8.972 0 0 0 9 18c4.963 0 9-4.037 9-9z"/></g></g></g></svg>