<svg xmlns="http://www.w3.org/2000/svg" width="37" height="37" viewBox="0 0 37 37"><g><g><g><g opacity=".11"><path d="M1.15 17.887c.937 2.407 7.848-1.696 7.848 4.403 0 3.248 14.331 14.254 14.331 14.254s19.545-9.703 10.823-34.153C33.25 2.39 12.159 0 12.159 0S4.072 13.86 1.15 17.887z"/></g><g><g><g><path fill="#feffff" d="M21 9.5C21 4.253 16.299 0 10.5 0S0 4.253 0 9.5c0 1.986.674 3.829 1.825 5.353l-1.38 3.744 4.138-1.248C6.268 18.39 8.305 19 10.5 19 16.299 19 21 14.747 21 9.5z"/></g><g><path fill="#feffff" d="M29 18.277c0-4.354-3.013-8.039-7.166-9.277a11.01 11.01 0 0 1-.94 5.14 11.52 11.52 0 0 1-2.61 3.68 12.195 12.195 0 0 1-3.872 2.48A12.66 12.66 0 0 1 9 21.19C10.303 25.137 14.182 28 18.766 28c2.139 0 4.124-.624 5.767-1.69l4.032 1.277-1.344-3.831A9.343 9.343 0 0 0 29 18.277z"/></g></g></g></g></g></g></svg>