<svg xmlns="http://www.w3.org/2000/svg" width="30" height="24" viewBox="0 0 30 24"><defs><clipPath id="skq3a"><path fill="#fff" d="M19.506 10l-3.025 7.837-2.754-3.936-1.619 2.133-3.053-5.089-1.65 3.812H0v2.184h6.449c3.04 3.202 7.361 6.595 7.565 6.754l.389.305.39-.303c.216-.167 5.319-4.14 8.266-7.486L24 15.143h-2.389z"/></clipPath><clipPath id="skq3b"><path fill="#fff" d="M26.201 11.161a8.05 8.05 0 0 0 .901-4.18 7.52 7.52 0 0 0-2.16-4.906C23.616.737 21.885 0 20.064 0c-2.773 0-5.043 1.712-5.999 2.561-.928-.856-3.136-2.559-6.02-2.559-1.82 0-3.552.738-4.876 2.077a7.526 7.526 0 0 0-2.16 4.909c-.092 1.75.47 3.542 1.715 5.48l.187.291H5.99l2.476-5.48 3.455 5.501 1.52-1.907L15.726 14l3.403-8.44 3.241 7.568H30v-1.967z"/></clipPath></defs><g><g><path fill="#feffff" d="M19.506 10l-3.025 7.837-2.754-3.936-1.619 2.133-3.053-5.089-1.65 3.812H0v2.184h6.449c3.04 3.202 7.361 6.595 7.565 6.754l.389.305.39-.303c.216-.167 5.319-4.14 8.266-7.486L24 15.143h-2.389z"/><path fill="none" stroke="#dfd9d9" stroke-miterlimit="50" stroke-width="2" d="M19.506 10v0l-3.025 7.837v0L13.727 13.9v0l-1.619 2.133v0l-3.053-5.089v0l-1.65 3.812v0H4.524v0H0v2.184h6.449c3.04 3.202 7.361 6.595 7.565 6.754l.389.305v0l.39-.303c.216-.167 5.319-4.14 8.266-7.486L24 15.143v0h-2.389v0z" clip-path="url(&quot;#skq3a&quot;)"/></g><g><path fill="#feffff" d="M26.201 11.161a8.05 8.05 0 0 0 .901-4.18 7.52 7.52 0 0 0-2.16-4.906C23.616.737 21.885 0 20.064 0c-2.773 0-5.043 1.712-5.999 2.561-.928-.856-3.136-2.559-6.02-2.559-1.82 0-3.552.738-4.876 2.077a7.526 7.526 0 0 0-2.16 4.909c-.092 1.75.47 3.542 1.715 5.48l.187.291H5.99l2.476-5.48 3.455 5.501 1.52-1.907L15.726 14l3.403-8.44 3.241 7.568H30v-1.967z"/><path fill="none" stroke="#dfd9d9" stroke-miterlimit="50" stroke-width="2" d="M26.201 11.161a8.05 8.05 0 0 0 .901-4.18 7.52 7.52 0 0 0-2.16-4.906C23.616.737 21.885 0 20.064 0c-2.773 0-5.043 1.712-5.999 2.561-.928-.856-3.136-2.559-6.02-2.559-1.82 0-3.552.738-4.876 2.077a7.526 7.526 0 0 0-2.16 4.909c-.092 1.75.47 3.542 1.715 5.48l.187.291v0H5.99v0l2.476-5.48v0l3.455 5.501v0l1.52-1.907v0L15.726 14v0l3.403-8.44v0l3.241 7.568v0h.15v0h2.41v0H30v0-1.967 0z" clip-path="url(&quot;#skq3b&quot;)"/></g></g></svg>