<svg xmlns="http://www.w3.org/2000/svg" width="24" height="24" viewBox="0 0 24 24"><g><g><path fill="#004987" d="M12 18.918a6.918 6.918 0 1 1 5.94-3.37l-3.03-3.03a4.23 4.23 0 0 0 .335-1.656 4.213 4.213 0 0 0-1.242-3 4.213 4.213 0 0 0-2.999-1.241c-.378 0-.754.05-1.118.15a.48.48 0 0 0-.332.334.469.469 0 0 0 .133.458s1.495 1.507 1.996 2.008c.052.052.052.177.045.222l-.005.033c-.05.55-.148 1.21-.228 1.464l-.032.031-.033.034c-.257.083-.928.181-1.486.231v-.003l-.025.006a.32.32 0 0 1-.254-.096c-.521-.52-1.958-1.948-1.958-1.948a.488.488 0 0 0-.35-.155.475.475 0 0 0-.446.361 4.255 4.255 0 0 0 1.094 4.11 4.214 4.214 0 0 0 3 1.242c.578 0 1.138-.116 1.655-.335l3.063 3.062A6.883 6.883 0 0 1 12 18.918zm11.925-8.25c-.038-.338-.432-.591-.772-.591-1.1 0-2.075-.646-2.485-1.645a2.673 2.673 0 0 1 .671-2.967.667.667 0 0 0 .074-.905 11.88 11.88 0 0 0-1.902-1.92.668.668 0 0 0-.912.074c-.715.792-2 1.087-2.993.672a2.665 2.665 0 0 1-1.62-2.605.666.666 0 0 0-.59-.701c-.896-.104-1.8-.107-2.7-.007a.668.668 0 0 0-.593.687 2.67 2.67 0 0 1-1.644 2.56c-.98.4-2.256.108-2.97-.677a.669.669 0 0 0-.906-.076c-.719.565-1.373 1.21-1.941 1.92a.668.668 0 0 0 .071.911 2.66 2.66 0 0 1 .672 2.995c-.415.986-1.439 1.622-2.611 1.622a.653.653 0 0 0-.694.59 12.03 12.03 0 0 0-.005 2.728c.038.339.443.59.787.59 1.045-.026 2.048.62 2.47 1.644a2.67 2.67 0 0 1-.672 2.968.666.666 0 0 0-.073.904c.558.71 1.198 1.356 1.898 1.92.275.222.676.19.914-.072.718-.794 2.003-1.088 2.991-.673a2.662 2.662 0 0 1 1.624 2.605.666.666 0 0 0 .589.7 11.894 11.894 0 0 0 2.7.008.668.668 0 0 0 .594-.687 2.667 2.667 0 0 1 1.642-2.559c.987-.403 2.258-.108 2.972.676a.67.67 0 0 0 .905.076 11.945 11.945 0 0 0 1.942-1.92.667.667 0 0 0-.072-.912 2.659 2.659 0 0 1-.672-2.993 2.686 2.686 0 0 1 2.455-1.627l.148.004a.668.668 0 0 0 .702-.589c.106-.902.108-1.82.006-2.728z"/></g></g></svg>