<svg xmlns="http://www.w3.org/2000/svg" width="28" height="18" viewBox="0 0 28 18"><g><g><g><path fill="#feffff" d="M20.79 14.102A12.867 12.867 0 0 1 14 16.001c-2.438 0-4.7-.633-6.789-1.899C5.122 12.836 3.385 11.136 2.001 9c1.582-2.458 3.567-4.297 5.952-5.515A6.828 6.828 0 0 0 7 7c0 1.927.685 3.575 2.055 4.945S12.073 14 14 14c1.927 0 3.575-.685 4.945-2.055S21 8.927 21 7c0-1.26-.318-2.432-.953-3.515C22.432 4.703 24.417 6.542 26 9c-1.385 2.136-3.122 3.836-5.21 5.102zM10.647 3.648C11.58 2.716 12.698 2.25 14 2.25c.208 0 .385.073.531.219a.724.724 0 0 1 .22.531.724.724 0 0 1-.22.531.723.723 0 0 1-.53.219c-.897 0-1.662.318-2.298.953A3.13 3.13 0 0 0 10.75 7a.724.724 0 0 1-.219.532.723.723 0 0 1-.531.218.724.724 0 0 1-.531-.218.723.723 0 0 1-.22-.532c0-1.302.467-2.42 1.4-3.352zm17.04 4.274c-1.459-2.385-3.42-4.302-5.883-5.75C19.34.724 16.74 0 14 0c-2.74 0-5.341.724-7.805 2.172C3.732 3.62 1.771 5.537.312 7.922.104 8.287 0 8.646 0 9c0 .355.104.714.312 1.078 1.459 2.386 3.42 4.303 5.883 5.75C8.66 17.276 11.26 18 14 18c2.74 0 5.341-.721 7.805-2.164 2.463-1.442 4.424-3.362 5.883-5.758C27.896 9.714 28 9.355 28 9c0-.354-.104-.713-.312-1.078z"/></g></g></g></svg>